<?xml version="1.0" encoding="UTF-8" standalone="no"?>
<!-- Created with Inkscape (http://www.inkscape.org/) -->

<svg
   xmlns:dc="http://purl.org/dc/elements/1.1/"
   xmlns:cc="http://creativecommons.org/ns#"
   xmlns:rdf="http://www.w3.org/1999/02/22-rdf-syntax-ns#"
   xmlns:svg="http://www.w3.org/2000/svg"
   xmlns="http://www.w3.org/2000/svg"
   xmlns:sodipodi="http://sodipodi.sourceforge.net/DTD/sodipodi-0.dtd"
   xmlns:inkscape="http://www.inkscape.org/namespaces/inkscape"
   width="210mm"
   height="297mm"
   viewBox="0 0 210 297"
   version="1.1"
   id="svg846"
   inkscape:version="0.92.4 (5da689c313, 2019-01-14)"
   sodipodi:docname="schweller_kappe_vr_silloutette.svg">
  <defs
     id="defs840" />
  <sodipodi:namedview
     id="base"
     pagecolor="#ffffff"
     bordercolor="#666666"
     borderopacity="1.0"
     inkscape:pageopacity="0.0"
     inkscape:pageshadow="2"
     inkscape:zoom="11.313709"
     inkscape:cx="3.8091582"
     inkscape:cy="65.283714"
     inkscape:document-units="mm"
     inkscape:current-layer="layer1"
     showgrid="false"
     inkscape:window-width="1916"
     inkscape:window-height="2131"
     inkscape:window-x="0"
     inkscape:window-y="0"
     inkscape:window-maximized="0" />
  <metadata
     id="metadata843">
    <rdf:RDF>
      <cc:Work
         rdf:about="">
        <dc:format>image/svg+xml</dc:format>
        <dc:type
           rdf:resource="http://purl.org/dc/dcmitype/StillImage" />
        <dc:title></dc:title>
      </cc:Work>
    </rdf:RDF>
  </metadata>
  <g
     inkscape:label="Layer 1"
     inkscape:groupmode="layer"
     id="layer1">
    <path
       style="fill:none;stroke:#000000;stroke-width:0.07587706px;stroke-linecap:butt;stroke-linejoin:miter;stroke-opacity:1"
       d="m -5.4098017,233.17554 8.91455,10.12404 c 1.33896,1.51225 1.48675,1.9614 1.732,2.99601 1.057,6.35865 2.20834,11.64653 3.44975,17.45607 0.44897,2.17983 0.82069,4.30714 1.05853,6.40506 0.0443,0.32663 0.0858,0.68577 0.12447,1.06815 0.2389297,2.36427 0.3687797,5.61748 0.3829697,7.57434 -0.0348,2.54385 -0.0545,5.0276 -0.6560797,9.83002 -0.65986,4.33557 -1.53818,8.20834 -2.56324,11.26951 -1.22195,3.49067 -2.44147,6.74584 -4.13804,9.61516 -0.56031,0.84178 -1.07925,1.59591 -1.58742,2.20008 -0.32078002,0.23883 -0.41229002,0.10444 -0.50807002,0.0447 l -0.65724,-0.50319 c -0.25665,-0.16803 -0.2027,-0.41151 -0.0832,-0.59045 0.39218,-0.60014 0.85356,-1.18666 1.29831002,-1.98935 l 1.75373,-3.61084 c 1.03371,-2.44262 1.5637,-4.63788 2.45678,-7.22686 0.0743,-0.24549 0.21619,-0.73337 0.21619,-0.73337 l -5.78581002,-0.0942 3e-4,-5.77021 7.17877002,0.11841 c 0,0 0.18449,-0.87962 0.22958,-1.09348 0.46226,-2.50122 0.71592,-4.96317 0.77912,-7.49711 0.0439,-3.37916 -0.073,-6.70838 -0.23866,-10.13627 -0.22258,-3.47159 -0.2246,-3.60044 -1.31919,-9.33689 l -6.63481002,-0.16852 0.0123,-5.77205 5.28442002,0.0871 c 0,0 -0.71898,-3.75329 -0.84871,-4.47789 l -1.18014,-6.36216 c -0.12302,-0.68604 -0.43626,-1.18598 -0.82198,-1.61501 l -6.57414,-7.51635 -2.3373,-2.70054 c -0.35813,-0.38387 -0.36039,-0.65603 -0.18057,-0.88063 l 0.63417,-0.66065 c 0.15644,-0.17024 0.35433,-0.20423 0.60865,-0.0527 z"
       id="path881"
       inkscape:connector-curvature="0"
       sodipodi:nodetypes="cccccscccccccccccccccccccccccccccccc" />
  </g>
</svg>
